HIERARCHY
ROOT Hips
{
  OFFSET -102.467 93.6631 130.069
  CHANNELS 6 Xposition Yposition Zposition Zrotation Xrotation Yrotation
  JOINT LeftUpLeg
  {
    OFFSET 8.64259 1.95398 -2.38835
    CHANNELS 3 Zrotation Xrotation Yrotation
    JOINT LeftLeg
    {
      OFFSET 43.7702 0 0
      CHANNELS 3 Zrotation Xrotation Yrotation
      JOINT LeftFoot
      {
        OFFSET 40.6238 0 0
        CHANNELS 3 Zrotation Xrotation Yrotation
        JOINT LeftToeBase
        {
          OFFSET 12.7242 0 0
          CHANNELS 3 Zrotation Xrotation Yrotation
          End Site
          {
            OFFSET 0 0 0
          }
        }
      }
    }
  }
  JOINT RightUpLeg
  {
    OFFSET -8.2249 1.95398 -2.59336
    CHANNELS 3 Zrotation Xrotation Yrotation
    JOINT RightLeg
    {
      OFFSET 43.5653 0 0
      CHANNELS 3 Zrotation Xrotation Yrotation
      JOINT RightFoot
      {
        OFFSET 40.6238 0 0
        CHANNELS 3 Zrotation Xrotation Yrotation
        JOINT RightToeBase
        {
          OFFSET 12.7242 0 0
          CHANNELS 3 Zrotation Xrotation Yrotation
          End Site
          {
            OFFSET 0 0 0
          }
        }
      }
    }
  }
  JOINT Spine
  {
    OFFSET 0.165834 0.87714 6.61349
    CHANNELS 3 Zrotation Xrotation Yrotation
    JOINT Spine1
    {
      OFFSET 7.38963 1.71661e-005 0
      CHANNELS 3 Zrotation Xrotation Yrotation
      JOINT Spine2
      {
        OFFSET 11.9445 1.14441e-005 0
        CHANNELS 3 Zrotation Xrotation Yrotation
        JOINT Spine3
        {
          OFFSET 14.7254 4.19617e-005 0
          CHANNELS 3 Zrotation Xrotation Yrotation
          JOINT Spine4
          {
            OFFSET 10.9679 0 0
            CHANNELS 3 Zrotation Xrotation Yrotation
            JOINT RightShoulder
            {
              OFFSET 2.46616 -1.6653 3.69651
              CHANNELS 3 Zrotation Xrotation Yrotation
              JOINT RightArm
              {
                OFFSET 13.0012 0 0
                CHANNELS 3 Zrotation Xrotation Yrotation
                JOINT RightForeArm
                {
                  OFFSET 28.7848 1.52588e-005 0
                  CHANNELS 3 Zrotation Xrotation Yrotation
                  JOINT RightHand
                  {
                    OFFSET 26.5688 1.52588e-005 0
                    CHANNELS 3 Zrotation Xrotation Yrotation
                    End Site
                    {
                      OFFSET 0 0 0
                    }
                  }
                }
              }
            }
            JOINT LeftShoulder
            {
              OFFSET 2.38034 -1.29275 -3.7523
              CHANNELS 3 Zrotation Xrotation Yrotation
              JOINT LeftArm
              {
                OFFSET 16.3182 6.10351e-005 0
                CHANNELS 3 Zrotation Xrotation Yrotation
                JOINT LeftForeArm
                {
                  OFFSET 27.0901 0 0
                  CHANNELS 3 Zrotation Xrotation Yrotation
                  JOINT LeftHand
                  {
                    OFFSET 24.5451 1.52588e-005 0
                    CHANNELS 3 Zrotation Xrotation Yrotation
                    End Site
                    {
                      OFFSET 0 0 0
                    }
                  }
                }
              }
            }
            JOINT Neck
            {
              OFFSET 5.0226 -0.0266342 0
              CHANNELS 3 Zrotation Xrotation Yrotation
              JOINT Head
              {
                OFFSET 6.69363 2.86102e-005 0
                CHANNELS 3 Zrotation Xrotation Yrotation
                End Site
                {
                  OFFSET 0 0 0
                }
              }
            }
          }
        }
      }
    }
  }
}
MOTION
Frames:	17
Frame Time:	0.0416667
-285.764 91.0174 280.585 90.9721 26.8537 85.6334 -176.799 -16.1663 82.1486 -0.0141409 1.23337 0.759839 71.6912 1.9351 12.5423 31.0088 -0.423376 -1.93573 167.302 3.05783 76.9972 -22.4999 -39.4543 8.42767 63.3088 -4.16718 -10.7034 53.9714 -3.4746 6.8791 2.07048 5.20648 -89.7698 16.4833 4.2006 -0.243171 4.81908 4.19572 -0.428153 -17.7683 4.07912 1.0327 2.24434 4.07915 1.03269 114.056 -53.1974 -64.4055 28.042 -8.20599 9.33886 -154.414 -36.3977 -136.349 14.8263 -8.7358 -63.7166 -73.8099 -46.2605 103.278 -37.7237 8.90338 -1.01127 5.24686 52.2367 -10.9531 1.79763 -0.066292 -3.52732 -52.8582 -4.49555 -6.76391 0.288281 -7.86204 -12.5353 
-285.827 91.0539 280.598 90.8389 26.7873 85.598 -176.941 -15.9557 81.944 -0.115947 1.02675 0.808144 71.6188 1.72395 12.3238 30.9277 -0.382027 -1.57605 167.253 3.04012 76.9376 -22.1207 -39.6188 8.44957 63.5424 -4.48902 -10.675 53.0312 -3.76961 5.67107 2.07286 5.20584 -89.7557 16.4829 4.21268 -0.216804 4.81867 4.19573 -0.402336 -17.7691 4.08271 1.06147 2.24352 4.08273 1.06147 114.053 -53.0556 -64.3803 29.0268 -10.9595 9.25665 -135.553 -47.1653 -122.913 38.6418 -17.415 -51.0282 -73.7796 -46.342 103.319 -37.6322 8.74915 -1.37113 5.08349 52.8991 -10.5642 1.69121 -0.0634208 -3.64454 -52.6274 -4.5607 -6.79785 0.181907 -7.9037 -12.4351 
-285.977 91.1535 280.732 90.4355 26.8003 85.4277 -177.132 -15.5018 81.5963 0.0234755 0.949063 0.701342 71.2536 1.59471 12.2608 31.1229 -0.365841 -1.09389 167.136 2.98215 76.8266 -21.1499 -39.4631 8.40861 63.876 -5.25891 -11.3153 52.1329 -3.536 5.79394 2.0499 5.20168 -89.6865 16.4852 4.20235 -0.0753795 4.82099 4.19579 -0.260598 -17.7657 4.03039 1.19318 2.24695 4.03039 1.19318 113.892 -53.3186 -64.6752 29.0118 -11.2025 8.73682 -123.681 -52.3432 -113.601 42.3597 -15.8209 -44.1106 -73.7676 -45.831 103.378 -37.9639 8.82336 -1.76625 5.12473 52.7029 -10.5262 2.28481 -0.0484145 -3.33282 -51.4689 -4.57848 -7.19879 -0.551318 -7.84581 -11.8738 
-286.197 91.2738 280.956 89.8541 26.8337 85.1604 -177.303 -14.7309 81.1863 -0.00804805 0.774296 0.473343 71.1694 1.70272 12.2711 30.7954 -0.360749 -1.52918 166.948 2.94534 76.655 -19.849 -39.2177 8.37349 64.531 -6.53817 -12.2208 50.4349 -3.21348 5.73667 2.01974 5.20692 -89.5885 16.4707 4.19294 0.125022 4.8065 4.19426 -0.0599697 -17.7786 3.9612 1.38138 2.23401 3.96121 1.38138 113.534 -53.9131 -65.3245 28.8618 -11.3333 8.19752 -102 -56.7861 -95.3497 45.9805 -12.6688 -33.9189 -73.8581 -45.4033 103.266 -38.2378 8.88626 -2.47458 4.84824 52.2787 -10.0203 2.31253 -0.0462264 -3.28779 -49.727 -4.64731 -7.91636 -1.57252 -7.84157 -10.8782 
-286.491 91.4633 281.25 89.0749 26.9044 84.84 -177.793 -13.7016 80.443 0.0261258 0.401418 0.449342 70.5034 1.36342 12.0249 31.5248 -0.39899 -0.902257 166.497 2.79475 76.3415 -17.6694 -38.7595 8.55504 65.2319 -8.08582 -13.3234 48.0156 -2.42727 6.61679 1.97984 5.21604 -89.4713 16.4474 4.17415 0.366164 4.78313 4.18616 0.181783 -17.7996 3.87083 1.60558 2.213 3.87081 1.60557 113.012 -54.2622 -66.1595 28.7983 -10.264 7.13398 -81.0117 -58.8895 -77.0534 40.3028 -8.42051 -27.3414 -73.8999 -44.9953 103.23 -38.6321 8.80403 -3.38834 4.75516 52.1054 -9.63637 2.03835 -0.0447656 -3.18151 -47.2662 -4.75369 -8.63451 -3.09636 -7.75614 -9.87838 
-286.847 91.6643 281.62 88.1036 27.0141 84.5581 -177.877 -12.4425 80.0113 -0.00159789 0.386824 0.0397419 70.4292 1.60651 12.14 30.8854 -0.37301 -1.53564 166.378 2.42736 76.3792 -15.2149 -38.1158 8.13016 66.2583 -9.95941 -14.0662 45.1131 -2.17666 5.6759 1.93395 5.22596 -89.3509 16.4222 4.14489 0.615464 4.75777 4.16796 0.432117 -17.822 3.76805 1.83437 2.19064 3.76806 1.83436 112.448 -54.5066 -67.0302 28.9285 -10.0044 6.26566 -59.8466 -56.6531 -58.8428 36.1147 -4.42063 -18.2957 -73.8913 -44.6662 103.269 -38.9273 8.95079 -4.3356 4.80245 51.8357 -9.55562 1.81987 -0.0618843 -3.58484 -44.1949 -5.03806 -9.31758 -5.08563 -7.74466 -8.80377 
-287.273 91.6577 282.087 87.0868 27.1905 84.2408 -178.169 -11.0907 79.3879 -0.00761401 0.263739 -0.165576 70.0961 1.68711 12.2747 30.6055 -0.373317 -1.9763 166.313 2.84076 76.3661 -14.2497 -37.3197 7.77253 68.1286 -12.7896 -15.2425 41.6035 -1.52218 5.57349 1.88129 5.24354 -89.2129 16.3812 4.11137 0.902023 4.71659 4.14709 0.719895 -17.8594 3.65002 2.09737 2.15329 3.65003 2.09737 111.818 -54.8458 -68.0107 29.0677 -9.55808 5.32072 -44.1757 -53.0702 -45.5577 29.3603 -1.75382 -11.4912 -73.8841 -44.2574 103.312 -39.2507 9.12837 -5.4322 4.60495 51.8042 -9.152 1.83534 -0.081174 -4.12004 -40.4164 -5.30369 -10.2382 -7.61712 -7.66043 -7.58489 
-287.732 91.5494 282.606 85.9502 27.4183 83.9653 -178.588 -9.54461 78.6607 -0.0541552 0.290393 -0.241828 69.3265 1.45534 12.4202 31.2396 -0.403551 -1.36346 166.255 3.27466 76.3909 -12.9228 -37.1044 7.58974 69.1845 -15.8211 -17.5741 38.8711 -0.780284 6.43489 1.82072 5.2698 -89.071 16.3218 4.06414 1.19924 4.6568 4.11298 1.01893 -17.9144 3.51571 2.36638 2.09825 3.51571 2.36638 111.162 -55.3632 -69.0496 28.918 -9.33959 4.5023 -33.0273 -48.4546 -36.5606 22.3059 -0.242572 -6.18355 -73.9812 -44.1049 103.166 -39.1775 9.61328 -6.46601 4.37338 51.1599 -9.03215 1.5291 -0.0776447 -3.98739 -36.3083 -5.67935 -11.2869 -10.2116 -7.69994 -5.90767 
-288.177 91.4378 283.137 84.7751 27.7483 83.7919 -178.659 -8.02723 78.2636 -0.136071 0.264665 -0.561126 68.9486 1.4822 12.1682 31.093 -0.386754 -1.38147 166.039 3.61157 76.3624 -11.147 -36.5101 7.55042 70.8182 -18.5122 -18.3694 35.262 -0.26424 5.78346 1.74525 5.31109 -88.943 16.2332 3.98014 1.47594 4.5677 4.04125 1.29909 -17.9979 3.35252 2.60475 2.01479 3.35252 2.60474 108.637 -56.9056 -72.8937 27.8585 -9.10207 5.12258 -25.4713 -42.3536 -31.5239 16.4233 0.7277 -0.0524153 -73.92 -43.7723 103.292 -39.4755 9.65901 -7.39588 4.63003 50.4037 -9.13213 0.77934 -0.0721394 -3.70168 -31.5483 -6.26676 -12.4963 -13.2454 -7.91922 -3.83212 
-288.659 91.3221 283.763 83.4751 28.1829 83.5252 -179.22 -6.33031 77.4856 0.0413773 0.20751 -0.502804 68.2977 1.7379 12.5408 31.3659 -0.445281 -1.65369 166.456 4.23837 76.6123 -10.495 -35.1245 6.57356 73.3238 -21.5169 -18.3159 32.4315 -0.144202 3.71656 1.66683 5.36093 -88.7843 16.1259 3.9056 1.81339 4.45981 3.98161 1.63953 -18.099 3.18015 2.90384 1.91369 3.18014 2.90384 108.197 -57.3519 -73.568 27.9112 -8.3202 3.6395 -20.0503 -39.3561 -27.1423 11.318 0.77077 2.54276 -74.4146 -43.6735 102.489 -39.4764 9.78111 -8.16653 4.39166 49.5724 -8.68538 0.768014 -0.0728816 -3.48036 -26.6121 -6.76906 -13.8363 -16.3203 -8.04272 -1.95642 
-289.01 91.1837 284.43 82.2549 28.8804 83.6034 -179.54 -4.70575 77.1617 0.00116315 0.650256 -0.402448 67.3814 1.7186 12.726 32.4302 -0.514421 -0.932142 166.726 4.52657 77.1072 -9.2081 -34.1349 6.04581 74.3052 -24.0773 -19.4458 32.7497 -0.707749 1.19168 1.54313 5.41978 -88.7337 16.0059 3.68664 1.95633 4.33895 3.76917 1.79202 -18.2133 2.92842 2.97411 1.79937 2.92843 2.9741 108.068 -57.1314 -73.7299 28.0164 -8.58543 2.64419 -16.6961 -36.1482 -24.6984 7.89009 0.675351 4.24561 -75.0279 -44.6859 101.428 -38.509 9.9052 -8.58735 3.67962 48.5102 -8.09894 0.258558 -0.0737655 -3.45889 -20.8687 -7.37449 -14.0099 -20.1329 -8.10294 -0.0704837 
-289.152 91.0506 285.056 80.9715 29.75 83.4264 -179.706 -3.24391 76.8033 0.014418 1.10673 -0.626958 66.9941 1.99216 12.7551 32.5316 -0.532124 -0.984199 166.641 5.24892 77.051 -8.24409 -33.3259 5.93832 75.1166 -25.7444 -19.8865 31.0294 -0.601034 -0.381636 1.38577 5.48915 -88.7066 15.8662 3.38899 2.06462 4.19823 3.47654 1.91337 -18.347 2.61206 2.9877 1.66568 2.61205 2.98769 107.858 -56.3509 -73.9546 28.3819 -8.73398 1.85384 -14.7425 -33.2468 -23.6639 5.2615 0.533326 5.87688 -75.6215 -46.3737 100.394 -37.3052 9.74787 -9.15267 3.19202 47.0041 -7.61952 -0.194913 -0.0670475 -3.18202 -15.0128 -7.52596 -13.0136 -23.8305 -7.7941 1.68561 
-289.042 90.9895 285.371 79.9318 30.6127 83.4509 -179.855 -2.19038 76.6042 -0.0492693 0.907142 -0.711211 66.6892 2.19362 12.0436 32.8403 -0.583563 -1.10982 165.796 5.42787 76.7061 -5.94154 -34.0939 6.87894 74.1443 -26.5536 -21.489 29.5015 -0.317093 -0.861065 1.25227 5.57923 -88.7431 15.6878 3.106 2.04248 4.01918 3.19287 1.90373 -18.522 2.34879 2.88144 1.49065 2.3488 2.88144 107.771 -55.4357 -73.9911 28.8365 -9.2443 0.854327 -12.7958 -30.5732 -22.3196 2.67739 0.302225 6.33077 -76.2746 -48.1893 99.3065 -36.1629 9.93916 -9.99742 3.14544 44.0237 -7.77216 0.74486 -0.0988309 -4.67525 -8.71498 -7.00551 -11.4199 -28.1537 -7.08256 3.55206 
-288.682 91.0472 285.369 79.2461 31.4357 83.4099 179.32 -1.60411 76.1028 0.299528 1.20805 -0.577919 64.5509 3.23834 13.1399 36.5876 -0.846372 0.499299 164.002 5.35245 75.7987 -2.63803 -36.6105 9.10803 71.3351 -25.9872 -23.9981 30.1413 -0.334717 -0.065833 1.16014 5.6897 -88.8479 15.4711 2.87028 1.87531 3.80211 2.95001 1.74712 -18.7384 2.17414 2.65118 1.27426 2.17413 2.65117 107.219 -54.3899 -74.7011 29.3148 -9.23784 -0.0356794 -10.9121 -28.3451 -20.5107 -0.201309 0.00581471 6.99735 -77.0881 -50.5302 98.0133 -34.472 10.5439 -10.8144 5.06369 41.6105 -11.0578 0.910779 -0.105642 -4.90896 -4.21059 -5.46764 -8.7505 -30.9025 -5.75659 4.89586 
-288.334 91.5109 285.396 79.2147 32.2604 83.8327 -179.259 2.48224 76.598 -7.00464 0.910151 -1.84678 61.5601 5.36395 13.1324 42.2327 -0.698625 4.51133 162.91 4.40016 75.8721 -0.141878 -36.8974 10.4477 68.9621 -24.954 -25.4536 30.7141 -0.0954497 2.02972 1.17482 5.94163 -88.9884 14.9713 2.82683 1.61483 3.30254 2.89515 1.48879 -19.2411 2.21093 2.38981 0.77155 2.21092 2.3898 107.238 -54.4745 -74.6827 28.8623 -10.9711 -0.530373 -8.94321 -24.1247 -20.1188 -4.29467 -0.444356 8.17974 -77.2117 -51.4209 97.8185 -33.1959 11.9355 -12.9583 7.47442 39.6949 -15.0516 1.25039 -0.0553901 -3.9268 1.12556 -3.61077 -7.1098 -33.2261 -4.13482 6.12938 
-288.034 92.0402 285.533 79.9275 33.2534 84.8755 -173.668 14.3677 77.8363 -31.1299 -0.108144 -3.09132 62.2505 5.80526 11.7597 47.6637 -0.269601 8.37469 163.26 3.05151 77.1636 -0.0398971 -35.3519 10.4376 66.8669 -23.1472 -25.9746 33.3985 -0.084679 4.9209 1.2276 6.33055 -89.1693 14.1994 2.83945 1.27361 2.53103 2.89274 1.14732 -20.0172 2.32544 2.06831 -0.00452868 2.32542 2.06831 105.902 -57.4185 -76.8393 25.1006 -13.3531 -1.04999 -5.60775 -17.7538 -18.3256 -8.29033 -0.853982 7.08713 -76.8148 -51.7292 98.407 -31.5054 14.4676 -14.2874 12.8014 43.387 -21.8988 6.07074 -0.565349 -10.2168 5.46436 -1.75623 -7.66655 -32.3244 -2.44764 8.49663 
-287.451 92.5701 285.069 79.9656 33.7822 85.3438 -171.022 22.6867 77.5972 -36.9534 3.99465 -4.19767 62.6617 4.63267 9.19765 44.6306 -0.694206 5.62724 163.422 2.63602 77.418 -0.390536 -33.9824 10.1101 65.4087 -20.0184 -23.8627 36.6514 -0.639193 5.29073 1.30754 6.6289 -89.2166 13.603 2.97344 1.18273 1.93502 3.02262 1.05061 -20.6162 2.4805 2.022 -0.60356 2.48052 2.02201 105.817 -59.4365 -77.0875 22.2329 -13.2314 -4.85399 -1.64131 -14.9203 -11.5563 -12.4123 -0.956745 3.88939 -76.3868 -51.6349 99.0479 -30.9382 14.9745 -14.0659 13.0358 38.2245 -24.1808 3.88214 -0.153829 -5.52841 12.0045 -0.817817 -8.60983 -35.671 -1.78103 10.8628 
